{
  "accessors": [
    {
      "bufferView": 2,
      "componentType": 5126,
      "count": 618,
      "max": [
        0.11610019952058792,
        0.21691860258579254,
        1.5023889541625977
      ],
      "min": [
        -0.0785803571343422,
        -0.10265830159187317,
        1.3890509605407715
      ],
      "type": "VEC3"
    },
    {
      "bufferView": 2,
      "byteOffset": 7416,
      "componentType": 5126,
      "count": 618,
      "max": [
        0.9964253902435303,
        0.9958417415618896,
        0.9998948574066162
      ],
      "min": [
        -0.9986153841018677,
        -0.9965025186538696,
        -0.9968750476837158
      ],
      "type": "VEC3"
    },
    {
      "bufferView": 1,
      "componentType": 5126,
      "count": 618,
      "max": [
        5.029129981994629,
        4.23980188369751
      ],
      "min": [
        -5.652750015258789,
        -3.6400949954986572
      ],
      "type": "VEC2"
    },
    {
      "bufferView": 0,
      "componentType": 5125,
      "count": 2364,
      "type": "SCALAR"
    },
    {
      "bufferView": 2,
      "byteOffset": 14832,
      "componentType": 5126,
      "count": 2559,
      "max": [
        0.280174195766449,
        0.374728798866272,
        2.0865070819854736
      ],
      "min": [
        -0.3205030858516693,
        -0.30498969554901123,
        0.06330510973930359
      ],
      "type": "VEC3"
    },
    {
      "bufferView": 2,
      "byteOffset": 45540,
      "componentType": 5126,
      "count": 2559,
      "max": [
        0.999997615814209,
        0.9997095465660095,
        0.9998689293861389
      ],
      "min": [
        -0.999997615814209,
        -1.0,
        -0.9997557997703552
      ],
      "type": "VEC3"
    },
    {
      "bufferView": 1,
      "byteOffset": 4944,
      "componentType": 5126,
      "count": 2559,
      "max": [
        0.9970961213111877,
        0.9906920790672302
      ],
      "min": [
        0.005604087840765715,
        0.006635189056396484
      ],
      "type": "VEC2"
    },
    {
      "bufferView": 0,
      "byteOffset": 9456,
      "componentType": 5125,
      "count": 6750,
      "type": "SCALAR"
    },
    {
      "bufferView": 2,
      "byteOffset": 76248,
      "componentType": 5126,
      "count": 558,
      "max": [
        0.09622769802808762,
        -0.0762638971209526,
        1.8548510074615479
      ],
      "min": [
        -0.09430825710296631,
        -0.11499369889497757,
        1.756971001625061
      ],
      "type": "VEC3"
    },
    {
      "bufferView": 2,
      "byteOffset": 82944,
      "componentType": 5126,
      "count": 558,
      "max": [
        0.9685580134391785,
        -0.21013717353343964,
        0.7934997081756592
      ],
      "min": [
        -0.9685581922531128,
        -1.0,
        -0.7743272185325623
      ],
      "type": "VEC3"
    },
    {
      "bufferView": 1,
      "byteOffset": 25416,
      "componentType": 5126,
      "count": 558,
      "max": [
        1.0838409662246704,
        1.0842440128326416
      ],
      "min": [
        -0.0842340886592865,
        -0.029299139976501465
      ],
      "type": "VEC2"
    },
    {
      "bufferView": 0,
      "byteOffset": 36456,
      "componentType": 5125,
      "count": 3144,
      "type": "SCALAR"
    },
    {
      "bufferView": 2,
      "byteOffset": 89640,
      "componentType": 5126,
      "count": 6042,
      "max": [
        0.8866584897041321,
        0.18641090393066406,
        1.9903709888458252
      ],
      "min": [
        -0.8822594881057739,
        -0.19860659539699554,
        0.9121484160423279
      ],
      "type": "VEC3"
    },
    {
      "bufferView": 2,
      "byteOffset": 162144,
      "componentType": 5126,
      "count": 6042,
      "max": [
        0.9998754262924194,
        0.9999547004699707,
        0.9993991851806641
      ],
      "min": [
        -0.9998675584793091,
        -0.9999762177467346,
        -0.9999501705169678
      ],
      "type": "VEC3"
    },
    {
      "bufferView": 1,
      "byteOffset": 29880,
      "componentType": 5126,
      "count": 6042,
      "max": [
        0.9959650039672852,
        0.9894567728042603
      ],
      "min": [
        0.003248692024499178,
        0.005569338798522949
      ],
      "type": "VEC2"
    },
    {
      "bufferView": 0,
      "byteOffset": 49032,
      "componentType": 5125,
      "count": 30816,
      "type": "SCALAR"
    },
    {
      "bufferView": 2,
      "byteOffset": 234648,
      "componentType": 5126,
      "count": 475,
      "max": [
        0.29465049505233765,
        0.3852458894252777,
        2.0461230278015137
      ],
      "min": [
        -0.3237825036048889,
        -0.3107987940311432,
        1.8538750410079956
      ],
      "type": "VEC3"
    },
    {
      "bufferView": 2,
      "byteOffset": 240348,
      "componentType": 5126,
      "count": 475,
      "max": [
        0.9870046973228455,
        0.9995905160903931,
        0.8088527321815491
      ],
      "min": [
        -0.9987064003944397,
        -0.9843995571136475,
        -0.5260961055755615
      ],
      "type": "VEC3"
    },
    {
      "bufferView": 1,
      "byteOffset": 78216,
      "componentType": 5126,
      "count": 475,
      "max": [
        11.201539993286133,
        0.9857274889945984
      ],
      "min": [
        -9.794041633605957,
        0.014515879563987255
      ],
      "type": "VEC2"
    },
    {
      "bufferView": 0,
      "byteOffset": 172296,
      "componentType": 5125,
      "count": 1608,
      "type": "SCALAR"
    },
    {
      "bufferView": 2,
      "byteOffset": 246048,
      "componentType": 5126,
      "count": 7208,
      "max": [
        0.6851176023483276,
        0.16018299758434296,
        1.655588984489441
      ],
      "min": [
        -0.6815618276596069,
        -0.26068851351737976,
        -0.0014079289976507425
      ],
      "type": "VEC3"
    },
    {
      "bufferView": 2,
      "byteOffset": 332544,
      "componentType": 5126,
      "count": 7208,
      "max": [
        1.0,
        1.0,
        1.0
      ],
      "min": [
        -1.0,
        -1.0,
        -0.9999995827674866
      ],
      "type": "VEC3"
    },
    {
      "bufferView": 1,
      "byteOffset": 82016,
      "componentType": 5126,
      "count": 7208,
      "max": [
        0.9826055765151978,
        0.9917917251586914
      ],
      "min": [
        0.0033484920859336853,
        0.004421830177307129
      ],
      "type": "VEC2"
    },
    {
      "bufferView": 0,
      "byteOffset": 178728,
      "componentType": 5125,
      "count": 26940,
      "type": "SCALAR"
    }
  ],
  "asset": {
    "extras": {
      "author": "Jamessmartguy (https://sketchfab.com/skybaca1985)",
      "license": "CC-BY-4.0 (http://creativecommons.org/licenses/by/4.0/)",
      "source": "https://sketchfab.com/3d-models/woody-toy-story-f88d8092b28d4a5d9e3cc4db99ca3aff",
      "title": "Woody Toy Story"
    },
    "generator": "Sketchfab-16.0.0",
    "version": "2.0"
  },
  "bufferViews": [
    {
      "buffer": 0,
      "byteLength": 286488,
      "name": "floatBufferViews",
      "target": 34963
    },
    {
      "buffer": 0,
      "byteLength": 139680,
      "byteOffset": 286488,
      "byteStride": 8,
      "name": "floatBufferViews",
      "target": 34962
    },
    {
      "buffer": 0,
      "byteLength": 419040,
      "byteOffset": 426168,
      "byteStride": 12,
      "name": "floatBufferViews",
      "target": 34962
    }
  ],
  "buffers": [
    {
      "byteLength": 845208,
      "uri": "scene.bin"
    }
  ],
  "images": [
    {
      "uri": "textures/Material_10_baseColor.png"
    },
    {
      "uri": "textures/Material_11_baseColor.png"
    },
    {
      "uri": "textures/Material_12_baseColor.png"
    },
    {
      "uri": "textures/Material_14_baseColor.png"
    },
    {
      "uri": "textures/Material_7_baseColor.png"
    },
    {
      "uri": "textures/Material_9_baseColor.png"
    }
  ],
  "materials": [
    {
      "doubleSided": true,
      "name": "Material_10",
      "pbrMetallicRoughness": {
        "baseColorTexture": {
          "index": 0
        },
        "metallicFactor": 0.0,
        "roughnessFactor": 0.6
      }
    },
    {
      "doubleSided": true,
      "name": "Material_11",
      "pbrMetallicRoughness": {
        "baseColorTexture": {
          "index": 1
        },
        "metallicFactor": 0.0,
        "roughnessFactor": 0.6
      }
    },
    {
      "doubleSided": true,
      "name": "Material_12",
      "pbrMetallicRoughness": {
        "baseColorTexture": {
          "index": 2
        },
        "metallicFactor": 0.0,
        "roughnessFactor": 0.6
      }
    },
    {
      "doubleSided": true,
      "name": "Material_14",
      "pbrMetallicRoughness": {
        "baseColorTexture": {
          "index": 3
        },
        "metallicFactor": 0.0,
        "roughnessFactor": 0.6
      }
    },
    {
      "doubleSided": true,
      "name": "Material_7",
      "pbrMetallicRoughness": {
        "baseColorTexture": {
          "index": 4
        },
        "metallicFactor": 0.0,
        "roughnessFactor": 0.6
      }
    },
    {
      "doubleSided": true,
      "name": "Material_9",
      "pbrMetallicRoughness": {
        "baseColorTexture": {
          "index": 5
        },
        "metallicFactor": 0.0,
        "roughnessFactor": 0.6
      }
    }
  ],
  "meshes": [
    {
      "name": "Object_0",
      "primitives": [
        {
          "attributes": {
            "NORMAL": 1,
            "POSITION": 0,
            "TEXCOORD_0": 2
          },
          "indices": 3,
          "material": 0,
          "mode": 4
        }
      ]
    },
    {
      "name": "Object_1",
      "primitives": [
        {
          "attributes": {
            "NORMAL": 5,
            "POSITION": 4,
            "TEXCOORD_0": 6
          },
          "indices": 7,
          "material": 1,
          "mode": 4
        }
      ]
    },
    {
      "name": "Object_2",
      "primitives": [
        {
          "attributes": {
            "NORMAL": 9,
            "POSITION": 8,
            "TEXCOORD_0": 10
          },
          "indices": 11,
          "material": 2,
          "mode": 4
        }
      ]
    },
    {
      "name": "Object_3",
      "primitives": [
        {
          "attributes": {
            "NORMAL": 13,
            "POSITION": 12,
            "TEXCOORD_0": 14
          },
          "indices": 15,
          "material": 3,
          "mode": 4
        }
      ]
    },
    {
      "name": "Object_4",
      "primitives": [
        {
          "attributes": {
            "NORMAL": 17,
            "POSITION": 16,
            "TEXCOORD_0": 18
          },
          "indices": 19,
          "material": 4,
          "mode": 4
        }
      ]
    },
    {
      "name": "Object_5",
      "primitives": [
        {
          "attributes": {
            "NORMAL": 21,
            "POSITION": 20,
            "TEXCOORD_0": 22
          },
          "indices": 23,
          "material": 5,
          "mode": 4
        }
      ]
    }
  ],
  "nodes": [
    {
      "children": [
        1
      ],
      "matrix": [
        1.0,
        0.0,
        0.0,
        0.0,
        0.0,
        2.220446049250313e-16,
        -1.0,
        0.0,
        0.0,
        1.0,
        2.220446049250313e-16,
        0.0,
        0.0,
        0.0,
        0.0,
        1.0
      ],
      "name": "Sketchfab_model"
    },
    {
      "children": [
        2,
        3,
        4,
        5,
        6,
        7
      ],
      "name": "Woody Toy Story .obj.cleaner.materialmerger.gles"
    },
    {
      "mesh": 0,
      "name": "Object_2"
    },
    {
      "mesh": 1,
      "name": "Object_3"
    },
    {
      "mesh": 2,
      "name": "Object_4"
    },
    {
      "mesh": 3,
      "name": "Object_5"
    },
    {
      "mesh": 4,
      "name": "Object_6"
    },
    {
      "mesh": 5,
      "name": "Object_7"
    }
  ],
  "samplers": [
    {
      "magFilter": 9729,
      "minFilter": 9987,
      "wrapS": 10497,
      "wrapT": 10497
    }
  ],
  "scene": 0,
  "scenes": [
    {
      "name": "Sketchfab_Scene",
      "nodes": [
        0
      ]
    }
  ],
  "textures": [
    {
      "sampler": 0,
      "source": 0
    },
    {
      "sampler": 0,
      "source": 1
    },
    {
      "sampler": 0,
      "source": 2
    },
    {
      "sampler": 0,
      "source": 3
    },
    {
      "sampler": 0,
      "source": 4
    },
    {
      "sampler": 0,
      "source": 5
    }
  ]
}
